<?xml version="1.0" standalone="no"?>
<!DOCTYPE svg PUBLIC "-//W3C//DTD SVG 20010904//EN"
 "http://www.w3.org/TR/2001/REC-SVG-20010904/DTD/svg10.dtd">
<svg version="1.0" xmlns="http://www.w3.org/2000/svg"
 width="512.000000pt" height="512.000000pt" viewBox="0 0 512.000000 512.000000"
 preserveAspectRatio="xMidYMid meet">
<metadata>
Created by potrace 1.14, written by Peter Selinger 2001-2017
</metadata>
<g transform="translate(0.000000,512.000000) scale(0.100000,-0.100000)"
fill="#000000" stroke="none">
<path d="M1785 5088 c-12 -24 -12 -28 -1 -19 11 9 16 9 22 0 5 -8 3 -9 -6 -4
-10 6 -12 4 -7 -9 5 -13 3 -17 -7 -13 -15 6 -16 -17 -1 -30 4 -4 5 -2 1 5 -4
7 -1 12 8 12 23 0 28 -18 9 -29 -23 -13 -8 -14 17 -1 13 7 21 7 25 0 3 -5 -1
-10 -9 -10 -8 0 -21 -7 -30 -15 -8 -9 -18 -16 -21 -15 -21 1 -27 -1 -22 -7 4
-3 -6 -14 -21 -23 -29 -18 -64 -77 -63 -108 1 -21 9 -85 11 -92 1 -3 2 -8 1
-12 0 -5 4 -8 11 -8 6 0 9 -3 5 -6 -3 -3 3 -30 13 -60 11 -30 17 -54 14 -54
-2 0 2 -16 10 -35 8 -19 13 -35 11 -35 -2 0 7 -29 20 -65 13 -36 21 -65 18
-65 -3 0 -1 -6 4 -12 9 -12 33 -76 39 -103 1 -5 7 -23 14 -40 6 -16 12 -32 12
-35 0 -3 8 -26 19 -51 10 -26 15 -50 12 -53 -4 -3 0 -6 7 -6 7 0 10 -3 7 -6
-3 -4 -2 -15 4 -26 6 -11 13 -29 16 -41 15 -66 16 -70 5 -63 -6 3 -13 2 -16
-3 -4 -5 -24 -12 -46 -16 -22 -4 -40 -11 -40 -16 0 -6 -4 -8 -9 -5 -9 6 -41
-6 -143 -53 -26 -11 -52 -21 -57 -21 -6 0 -11 -3 -11 -8 0 -4 -17 -16 -37 -27
-21 -11 -54 -29 -75 -42 l-36 -22 -39 57 c-21 31 -41 59 -45 60 -5 2 -8 8 -8
13 0 5 -58 96 -128 202 -71 105 -129 196 -130 200 -1 4 -8 15 -16 23 -9 8 -32
39 -51 69 -20 29 -50 67 -68 84 -31 31 -96 57 -107 43 -3 -4 -12 -7 -20 -7
-63 2 -157 -108 -155 -180 2 -54 18 -170 27 -200 4 -11 9 -36 12 -55 3 -19 10
-50 15 -68 5 -18 10 -35 10 -37 1 -3 1 -6 2 -7 0 -2 2 -12 4 -23 2 -11 11 -51
20 -90 9 -38 18 -79 20 -90 2 -11 11 -51 20 -90 9 -38 19 -88 22 -110 3 -22 8
-42 12 -45 3 -3 7 -21 8 -40 3 -55 7 -80 13 -80 3 0 8 -17 10 -37 8 -82 -1
-243 -13 -243 -5 0 -5 -5 -2 -11 4 -5 9 -25 12 -42 3 -18 9 -39 14 -48 4 -9 6
-19 3 -21 -2 -3 -12 -34 -20 -69 -9 -35 -18 -71 -21 -79 -6 -15 -8 -25 -17
-72 -3 -13 -5 -23 -6 -23 -1 0 -3 -15 -6 -34 -2 -19 -6 -46 -9 -60 -18 -93
-26 -453 -12 -546 9 -61 20 -148 20 -165 0 -8 4 -21 10 -27 6 -9 6 -13 -3 -13
-9 0 -10 -4 -2 -13 6 -7 13 -28 15 -47 2 -19 7 -42 9 -50 3 -8 11 -35 19 -60
7 -25 16 -49 21 -55 4 -5 8 -17 8 -27 0 -10 4 -18 8 -18 4 0 13 -15 20 -33 19
-52 113 -149 175 -180 54 -28 83 -35 144 -36 33 -1 33 -1 48 -81 5 -25 9 -190
5 -200 -2 -3 -4 -21 -6 -40 -1 -19 -5 -55 -9 -80 -6 -53 -12 -102 -20 -185 -3
-33 -8 -69 -10 -80 -2 -11 -4 -32 -4 -47 l-1 -26 -72 5 c-40 2 -95 5 -122 7
-58 4 -109 -21 -130 -63 -10 -20 -39 -107 -71 -211 -24 -76 -130 -273 -159
-292 -6 -4 -7 -8 -3 -8 4 0 -1 -10 -13 -22 -11 -12 -20 -25 -20 -30 0 -4 1001
-8 2225 -8 l2225 0 0 213 -1 212 -37 28 c-71 54 -230 215 -312 317 -25 30 -48
57 -53 58 -4 2 -5 8 -1 13 3 5 1 9 -4 9 -9 0 -162 220 -162 234 0 4 -9 16 -20
28 -10 12 -17 25 -14 30 3 4 1 8 -3 8 -5 0 -17 17 -28 37 -11 21 -22 40 -25
43 -3 3 -21 37 -40 75 -19 39 -39 73 -45 77 -5 4 -7 8 -2 8 4 0 -3 19 -15 42
-12 24 -22 45 -23 48 0 5 -11 32 -57 137 -10 23 -18 46 -18 52 0 6 -6 30 -14
53 -8 24 -17 57 -20 73 -2 17 -5 30 -6 30 -5 0 -29 140 -34 200 -8 87 -5 302
5 345 2 8 7 17 10 20 4 3 17 25 29 50 18 34 23 59 21 105 -3 79 -3 92 -1 142
2 33 -5 54 -30 93 -18 27 -36 50 -42 50 -5 0 -1 14 9 30 9 17 20 30 23 30 3 0
23 -22 43 -49 39 -50 153 -161 202 -196 15 -11 35 -27 44 -35 25 -24 117 -80
129 -80 7 0 12 -4 12 -10 0 -5 7 -10 15 -10 8 0 15 -5 15 -11 0 -6 7 -9 15 -5
8 3 15 1 15 -4 0 -5 11 -12 25 -16 14 -3 25 -10 25 -16 0 -5 6 -8 13 -6 6 1
26 -5 43 -14 17 -10 78 -35 135 -58 57 -22 121 -50 142 -61 l37 -20 0 134 c0
113 -3 137 -17 154 -10 11 -34 39 -53 63 -19 23 -40 47 -45 53 -6 7 -38 50
-73 97 -34 47 -71 95 -82 108 -12 12 -18 22 -15 22 4 0 -9 21 -28 48 -42 58
-137 219 -137 232 0 6 -5 10 -11 10 -6 0 -9 7 -5 15 3 8 2 15 -2 15 -4 0 -16
21 -26 48 -11 26 -35 79 -53 117 -19 39 -36 78 -38 89 -3 10 -11 26 -19 35 -8
9 -16 21 -17 26 -3 14 -23 59 -29 65 -3 3 -21 36 -40 74 -36 70 -103 150 -116
138 -4 -4 -4 2 0 12 5 16 4 17 -9 6 -10 -8 -15 -9 -15 -1 0 6 -7 11 -15 11 -9
0 -12 6 -9 15 4 8 10 15 16 15 5 0 7 -4 4 -8 -3 -5 1 -9 8 -9 8 0 12 6 9 14
-4 9 0 11 13 6 13 -5 15 -3 10 8 -4 8 -1 6 7 -4 13 -16 15 -16 21 -2 4 11 2
14 -7 9 -8 -5 -8 -2 2 9 12 15 31 15 31 1 0 -3 -5 -2 -12 2 -7 4 -8 3 -4 -5 6
-9 11 -9 22 0 15 12 19 23 6 15 -5 -3 -9 1 -9 8 0 8 8 11 19 8 10 -2 15 -9 11
-15 -4 -6 -1 -7 6 -2 9 5 9 11 3 17 -6 6 -8 17 -5 25 5 12 9 10 20 -8 9 -15
12 -17 9 -5 -5 14 -2 17 10 12 15 -6 15 -4 3 11 -12 14 -12 16 0 8 11 -6 13
-4 7 10 -6 16 -4 16 11 4 15 -12 16 -12 10 3 -4 10 1 24 11 34 9 10 17 21 17
25 0 4 4 11 9 16 5 5 6 3 2 -4 -4 -7 -2 -13 3 -13 6 0 11 5 11 11 0 5 6 7 13
4 6 -4 3 1 -7 9 -19 16 -19 16 5 16 13 0 20 4 14 8 -18 13 -15 32 5 32 11 0
20 5 20 11 0 5 -4 8 -9 4 -5 -3 -13 -1 -16 5 -4 6 -1 9 7 8 8 -2 13 6 12 18 0
16 4 20 14 16 11 -4 13 -2 6 9 -11 18 -12 39 -2 61 5 9 4 20 -2 23 -12 7 -4
25 12 25 5 0 7 -7 4 -16 -3 -8 -2 -12 4 -9 12 7 7 44 -11 77 -11 21 -11 22 4
9 16 -12 16 -11 2 22 -14 33 -13 37 3 47 15 10 15 10 -3 6 -17 -5 -20 -1 -21
29 -1 26 3 35 15 35 12 0 13 -2 3 -9 -11 -6 -10 -10 4 -15 10 -4 15 -4 12 0
-4 4 -3 16 3 27 8 14 8 18 0 13 -6 -4 -11 -2 -11 3 0 6 7 11 16 11 12 0 7 9
-17 32 -19 18 -32 39 -31 47 3 13 2 13 -14 0 -15 -12 -16 -12 -9 0 6 11 4 13
-11 8 -18 -7 -18 -6 1 9 14 12 15 15 4 11 -9 -3 -22 0 -29 6 -10 9 -11 9 -5
-3 7 -12 6 -13 -6 -2 -12 11 -12 14 1 23 12 9 12 10 -4 5 -10 -4 -25 -1 -32 5
-16 13 -19 43 -4 34 16 -10 12 11 -5 25 -13 11 -14 10 -10 -3 4 -8 1 -18 -6
-23 -8 -4 -10 -3 -5 4 4 7 2 12 -4 12 -6 0 -8 5 -5 10 3 6 1 10 -4 10 -6 0
-11 7 -11 15 0 9 -8 19 -17 22 -21 8 -48 33 -36 33 5 0 15 -6 23 -12 12 -11
12 -10 1 5 -7 9 -25 17 -40 18 -23 0 -24 1 -6 9 19 8 19 9 -2 9 -13 1 -23 6
-23 12 0 5 4 8 8 5 5 -3 9 1 9 8 0 7 -12 12 -31 12 -20 -1 -30 4 -28 12 1 6
-2 13 -8 13 -5 1 -14 3 -20 4 -5 1 -14 3 -20 4 -5 0 -10 6 -10 12 0 8 6 7 18
-2 15 -13 16 -12 3 4 -8 10 -20 16 -27 13 -19 -7 -27 11 -9 21 12 7 11 11 -8
22 -20 13 -21 13 -9 -1 10 -13 10 -17 -4 -22 -9 -4 -17 -5 -18 -4 -1 2 -8 12
-16 23 l-15 20 25 -20 25 -20 -19 22 c-16 19 -22 21 -34 10 -13 -10 -14 -9 -7
2 6 11 4 13 -8 8 -11 -4 -17 -1 -17 8 0 9 -10 15 -26 15 -14 0 -23 4 -20 9 3
5 -1 12 -10 15 -8 3 -13 2 -10 -3 4 -5 -3 -7 -14 -4 -11 3 -20 10 -20 15 0 5
5 6 10 3 11 -7 14 8 3 18 -3 4 -12 -1 -20 -11 -8 -9 -11 -11 -7 -3 5 11 3 13
-9 8 -11 -4 -17 -1 -17 7 0 11 -38 14 -195 14 -119 0 -193 -4 -189 -9 3 -6 14
-7 24 -4 10 3 21 1 25 -5 3 -5 11 -10 16 -10 6 0 7 5 4 11 -4 6 2 5 14 -3 12
-7 21 -16 21 -20 0 -8 -34 -3 -51 7 -5 4 -22 8 -36 10 -14 1 -28 7 -32 13 -4
6 -66 10 -165 9 -87 -1 -154 -3 -147 -5 6 -2 8 -9 4 -15 -4 -7 1 -6 10 2 14
11 17 11 17 0 0 -11 2 -11 10 1 7 10 10 11 10 2 0 -13 38 -10 61 4 8 4 9 -1 4
-16 -6 -20 -5 -21 8 -9 8 8 13 17 10 22 -2 4 0 7 5 7 5 0 14 -10 21 -22 l12
-23 -5 22 c-3 19 -1 21 14 13 9 -5 21 -6 25 -2 5 4 6 2 2 -3 -3 -6 3 -17 14
-23 19 -12 19 -11 9 10 -11 20 -9 20 14 -4 29 -30 47 -38 25 -11 -13 15 -12
15 9 4 12 -6 28 -9 34 -5 7 5 8 3 3 -5 -5 -9 -1 -12 11 -11 36 4 46 0 40 -16
-3 -8 -2 -13 3 -9 5 3 12 -1 15 -7 3 -7 3 -2 0 12 -4 19 -3 22 5 10 6 -8 11
-12 11 -7 0 4 13 1 29 -7 16 -9 31 -12 35 -9 5 6 10 -19 7 -39 0 -4 8 -6 19
-5 22 1 28 17 7 17 -8 0 -14 7 -14 15 0 10 4 12 12 5 7 -5 16 -6 20 -2 5 4 5
1 1 -6 -6 -9 -2 -12 10 -10 14 2 19 -3 18 -20 0 -16 3 -19 10 -12 5 5 17 10
25 10 12 0 11 -3 -3 -13 -15 -11 -12 -12 22 -9 22 2 43 -1 46 -7 4 -6 -4 -9
-23 -6 -24 3 -29 0 -24 -13 4 -10 8 -12 11 -4 6 19 19 14 25 -10 5 -16 9 -19
19 -11 23 18 45 22 45 8 0 -8 -7 -11 -16 -7 -13 5 -13 4 -1 -10 10 -11 17 -12
26 -4 7 6 10 14 7 19 -2 4 1 7 6 7 14 0 14 -13 -1 -28 -9 -9 -9 -12 -1 -12 7
0 14 4 18 9 3 6 16 4 32 -4 15 -8 31 -11 37 -8 6 3 5 0 -1 -8 -16 -16 -17 -39
-2 -39 5 0 8 4 4 9 -3 5 0 13 6 17 8 5 9 3 4 -6 -6 -10 -4 -12 9 -7 10 4 19 1
22 -8 4 -8 12 -15 19 -15 8 0 17 -9 20 -20 4 -11 11 -18 16 -15 5 4 9 1 9 -4
0 -6 -4 -11 -8 -11 -5 0 -9 -6 -9 -13 0 -8 6 -14 12 -14 7 0 12 5 11 11 0 6 2
12 7 14 4 1 7 0 7 -3 -1 -11 25 -33 33 -28 4 2 7 -2 7 -11 0 -9 -8 -13 -25
-12 -13 2 -22 -1 -19 -5 6 -10 33 -7 52 4 11 8 16 2 13 -15 0 -5 3 -8 9 -8 5
0 10 -5 10 -10 0 -7 -7 -7 -22 0 -22 11 -22 10 -4 -4 14 -12 23 -13 33 -5 9 8
13 8 13 0 0 -6 9 -20 20 -31 11 -11 16 -20 10 -20 -5 0 -10 -4 -10 -10 0 -5
10 -10 23 -10 17 0 19 -2 7 -9 -8 -6 -18 -7 -22 -5 -4 3 -8 0 -8 -6 0 -6 -5
-8 -12 -4 -7 4 -8 3 -4 -5 4 -6 12 -8 18 -5 21 13 55 12 55 -2 0 -9 -4 -11
-12 -4 -8 7 -18 3 -31 -13 l-19 -22 24 20 c23 20 23 20 20 0 -2 -11 -7 -22
-11 -25 -3 -3 0 -13 7 -23 11 -15 17 -17 35 -7 19 10 20 10 9 -8 -7 -11 -19
-18 -28 -15 -13 4 -13 3 -2 -5 11 -8 11 -10 0 -15 -8 -3 -4 -5 8 -3 12 1 26 6
30 11 5 4 2 5 -6 0 -9 -5 -12 -4 -7 3 13 21 26 12 22 -14 -4 -20 -2 -24 10
-20 10 4 13 2 7 -7 -11 -18 -10 -51 2 -59 7 -5 6 -8 -1 -8 -6 0 -10 -11 -8
-25 1 -17 -4 -29 -17 -35 -10 -6 -19 -16 -19 -22 0 -7 4 -7 13 1 10 8 14 7 14
-4 0 -8 -5 -11 -10 -8 -7 4 -8 -1 -4 -13 7 -18 7 -18 -8 0 -11 15 -15 16 -15
5 0 -8 5 -20 10 -25 13 -13 -17 -77 -31 -69 -14 9 -11 17 4 9 6 -4 9 -4 5 1
-4 4 -3 14 3 22 8 8 8 13 1 13 -11 0 -9 33 3 63 4 10 3 17 -5 17 -6 0 -8 -5
-4 -12 5 -7 2 -9 -8 -5 -11 4 -15 0 -13 -11 1 -9 -2 -25 -7 -35 -6 -12 -5 -16
3 -15 6 2 14 -3 17 -11 2 -8 0 -11 -6 -7 -6 3 -14 1 -18 -5 -5 -8 -8 -8 -14 1
-5 8 -9 5 -13 -9 -3 -12 0 -24 5 -28 7 -3 8 -1 4 5 -4 7 1 10 14 9 10 -1 22
-7 24 -14 6 -14 -23 -47 -33 -37 -3 4 0 9 7 11 6 3 12 9 12 14 0 15 -18 1 -31
-23 -8 -15 -8 -19 0 -14 6 4 11 2 11 -3 0 -15 -27 -14 -34 2 -4 8 -5 7 -5 -3
2 -29 -1 -43 -8 -37 -10 11 -32 -13 -26 -29 3 -8 0 -20 -6 -27 -13 -16 -56
-15 -56 0 0 19 -14 26 -28 15 -8 -7 -17 -9 -20 -5 -4 3 -7 1 -7 -6 0 -7 -5 -9
-10 -6 -6 4 -8 12 -4 18 3 7 -1 4 -9 -5 -8 -10 -17 -15 -20 -11 -4 3 -7 1 -7
-6 0 -7 -5 -9 -11 -5 -6 3 -30 8 -52 10 -23 2 -49 7 -57 10 -8 3 -31 8 -51 10
-20 3 -60 13 -90 24 -86 32 -116 27 -172 -25 -54 -50 -62 -52 -91 -27 -15 12
-17 13 -9 1 11 -13 7 -15 -27 -15 -22 0 -35 3 -29 7 7 4 8 9 1 13 -5 3 -13 -1
-16 -10 -3 -8 -10 -12 -16 -9 -6 4 -8 11 -5 16 4 5 1 9 -4 9 -6 0 -12 -7 -12
-15 -3 -29 -4 -33 -13 -42 -5 -5 -6 -3 -2 5 9 15 -6 16 -21 1 -7 -7 -12 -6
-17 6 -3 9 -2 13 4 10 17 -11 40 9 30 25 -6 9 -10 10 -10 3 0 -6 -8 -10 -17
-8 -10 2 -26 4 -37 4 -16 1 -17 3 -5 19 7 9 2 7 -12 -6 -23 -20 -27 -21 -39
-7 -15 18 -27 12 -14 -8 5 -7 -1 -1 -13 13 -16 17 -31 24 -49 22 -19 -3 -24 0
-19 9 5 8 4 10 -3 5 -7 -4 -20 -3 -29 3 -13 7 -23 5 -38 -7 -11 -9 -14 -10 -7
-2 6 8 12 21 12 29 -1 13 -2 13 -11 -1 -5 -10 -15 -18 -22 -18 -7 0 -6 4 3 10
13 9 13 10 0 11 -8 1 -18 1 -22 0 -5 0 -8 3 -8 9 0 5 -7 10 -16 10 -9 0 -12 5
-8 12 4 6 3 8 -3 5 -6 -4 -14 0 -17 9 -3 8 -10 13 -15 9 -11 -6 -91 26 -91 37
0 5 -6 8 -13 8 -8 0 -19 10 -26 23 -9 18 -11 18 -6 2 5 -19 5 -20 -10 -1 -8
10 -12 23 -8 29 3 6 1 7 -6 3 -6 -4 -9 -12 -6 -17 11 -18 -8 -9 -26 12 -10 12
-16 25 -13 30 3 5 -2 6 -11 3 -9 -4 -22 1 -31 12 -9 11 -13 12 -9 4 4 -8 -3
-4 -14 9 -12 13 -21 20 -21 16 0 -4 -7 -2 -15 5 -12 10 -13 16 -4 26 6 8 16
11 23 7 6 -3 7 -2 3 2 -10 11 -39 16 -32 5 3 -4 -2 -10 -10 -14 -8 -3 -14 0
-12 7 1 7 -3 11 -10 10 -7 -2 -10 4 -7 11 3 9 12 12 22 8 14 -5 15 -4 2 10
-13 14 -16 14 -27 -1 -11 -14 -14 -14 -22 -2 -5 8 -7 20 -4 27 2 6 -1 15 -7
19 -8 5 -7 11 2 23 8 10 9 13 1 9 -6 -4 -14 -3 -18 3 -4 6 -11 7 -17 4 -6 -4
-9 -1 -6 7 3 8 10 14 15 14 6 0 14 3 18 6 3 4 -8 5 -25 4 -23 -2 -33 3 -42 19
-6 11 -14 23 -17 26 -3 3 -12 13 -20 23 -12 15 -12 19 5 32 17 14 17 14 -10 5
-16 -6 -31 -8 -34 -5 -3 3 0 5 7 5 7 0 9 4 6 10 -3 5 0 8 7 7 7 -2 10 -2 5 0
-4 3 -5 8 -3 12 3 4 1 13 -4 21 -7 11 -12 11 -23 2 -12 -10 -14 -8 -12 10 4
38 5 39 14 33 5 -3 13 0 17 6 4 8 3 9 -4 5 -7 -4 -12 -2 -12 5 0 8 -4 8 -12 2
-15 -12 -49 -13 -42 -2 2 5 11 6 19 3 8 -4 17 1 21 9 3 9 13 13 22 10 11 -3
13 -2 6 4 -19 14 -35 53 -28 65 4 6 3 8 -3 5 -6 -4 -9 5 -8 21 1 15 -3 31 -9
35 -7 6 -4 7 6 3 31 -10 46 46 18 65 -13 9 -12 10 2 5 10 -3 20 -1 23 4 4 6 1
10 -4 10 -6 0 -11 5 -11 10 0 6 3 9 8 8 4 -1 18 3 32 10 25 13 25 13 5 -5 -22
-21 -30 -43 -15 -43 5 0 10 7 10 16 0 8 5 12 10 9 6 -4 9 -1 8 7 -2 8 5 12 17
10 17 -2 17 -1 5 8 -13 9 -13 11 0 19 8 5 18 7 22 5 5 -3 7 0 6 6 -2 7 5 14
15 15 9 2 17 -1 17 -6 0 -6 11 3 25 18 16 19 25 23 25 13 0 -13 1 -13 10 0 11
18 14 40 2 25 -4 -6 -16 -11 -27 -10 -11 0 -20 -5 -20 -12 0 -6 -3 -15 -7 -19
-5 -4 -8 -1 -8 7 0 11 -2 12 -9 1 -7 -11 -9 -11 -14 2 -4 9 -3 15 1 15 21 -3
32 2 26 13 -4 6 -3 8 4 4 6 -3 13 -2 17 3 3 6 13 7 22 4 12 -5 14 -3 8 8 -4 8
-5 11 0 7 4 -4 15 -2 23 5 13 10 14 9 8 -2 -7 -10 -3 -11 15 -6 22 7 23 7 9
-11 -14 -18 -14 -18 3 -5 18 14 18 16 1 28 -10 7 -13 13 -8 13 6 0 16 -6 22
-12 7 -7 24 -13 37 -13 23 -1 24 0 10 22 -9 13 -11 23 -5 23 5 0 10 -4 10 -10
0 -5 7 -10 16 -10 8 0 13 4 10 8 -9 14 32 11 44 -4 7 -7 17 -11 22 -8 6 4 15
0 20 -7 8 -11 9 -10 4 3 -3 11 2 19 17 24 12 4 23 2 25 -5 5 -15 22 -14 22 2
0 16 -275 24 -285 7 -3 -6 -10 -8 -14 -6 -4 3 -20 7 -35 10 -23 4 -26 2 -21
-15 6 -18 4 -19 -13 -10 -12 6 -23 15 -26 20 -3 5 -65 9 -137 9 -108 0 -129
-2 -125 -14 3 -8 1 -14 -5 -14 -6 0 -7 -4 -4 -10 3 -5 1 -10 -5 -10 -7 0 -9 9
-5 23 6 21 5 21 -8 -2 -10 -16 -16 -20 -19 -11 -3 10 -6 9 -11 -4 -4 -9 -3
-15 1 -12 4 2 14 1 22 -5 12 -7 9 -9 -10 -10 -14 -1 -27 -1 -30 -1 -3 0 -7
-11 -8 -24 -1 -15 2 -22 8 -19 6 3 10 1 10 -5 0 -7 -6 -10 -13 -7 -7 3 -21 -1
-32 -9 -12 -9 -14 -14 -5 -14 7 0 10 -3 7 -6 -3 -4 -2 -15 4 -26 10 -18 9 -19
-13 -7 -21 11 -22 11 -9 -4 8 -11 9 -17 3 -17 -7 0 -9 -7 -5 -17 4 -10 2 -14
-5 -9 -7 4 -9 -1 -6 -16 3 -13 6 -27 7 -33 2 -5 6 -16 11 -24 16 -26 -39 18
-117 93 -60 56 -71 72 -53 69 20 -4 25 -1 23 15 -1 16 -4 18 -14 10 -10 -8
-12 -7 -7 5 4 12 1 15 -15 12 -12 -2 -19 0 -16 4 3 5 21 7 40 4 l36 -5 -24 26
c-14 14 -30 26 -37 26 -7 0 -11 3 -7 6 3 3 -2 14 -11 25 -15 17 -29 19 -104
18 -87 -1 -88 -2 -103 -31z m785 11 c0 -3 -10 -11 -22 -18 -21 -11 -6 -8 26 5
7 3 16 -2 20 -11 3 -10 2 -14 -5 -9 -13 8 -60 -16 -53 -27 3 -5 -3 -6 -12 -2
-13 5 -15 3 -9 -7 5 -9 4 -11 -3 -6 -7 4 -12 1 -12 -8 0 -9 -5 -16 -11 -16 -7
0 -17 -7 -24 -16 -10 -14 -16 -14 -36 -5 -23 12 -23 11 -4 -4 12 -9 16 -19 10
-23 -6 -4 -10 -11 -10 -17 -1 -18 -28 -65 -37 -65 -5 0 -7 -4 -4 -9 9 -14 -5
-42 -17 -34 -6 4 -7 1 -1 -8 4 -8 9 -24 10 -37 1 -19 -3 -22 -19 -18 -18 5
-18 4 2 -15 24 -23 27 -39 6 -39 -9 0 -12 6 -9 18 5 14 4 15 -5 2 -8 -11 -6
-18 7 -28 9 -7 18 -17 18 -22 1 -6 3 -11 4 -12 1 -2 3 -18 5 -37 1 -18 8 -37
16 -42 7 -4 11 -10 8 -14 -11 -11 -40 34 -41 64 -1 17 -5 31 -9 31 -4 0 -6 -9
-4 -20 2 -11 0 -20 -5 -20 -12 0 -20 29 -10 35 6 4 10 11 10 16 0 6 -4 8 -9 4
-5 -3 -13 0 -17 6 -4 8 -3 9 4 5 7 -4 12 -3 12 3 0 5 -5 13 -10 16 -8 5 -7 11
1 21 10 12 8 13 -7 8 -15 -5 -16 -4 -5 4 12 8 12 13 2 25 -9 11 -9 17 0 22 8
6 7 10 -2 16 -11 7 -11 9 -1 9 8 0 10 5 6 12 -5 8 -2 9 9 5 10 -3 17 -2 17 3
0 6 -7 10 -16 10 -8 0 -13 4 -10 9 3 5 14 8 24 6 9 -1 12 0 5 2 -6 2 -14 11
-17 20 -8 21 9 40 19 22 5 -8 4 -10 -3 -5 -7 4 -12 2 -12 -4 0 -7 5 -10 12 -8
15 5 20 38 5 38 -6 0 0 11 12 24 13 14 20 29 16 36 -3 6 -3 10 2 9 27 -5 35 1
23 16 -11 13 -10 14 5 9 13 -5 16 -4 11 5 -5 8 3 7 24 -4 17 -9 34 -14 37 -12
2 3 -5 8 -16 12 -17 5 -19 10 -11 24 5 10 7 21 3 24 -3 4 4 4 17 2 15 -3 20 0
17 10 -4 10 1 12 19 9 15 -3 23 -1 20 5 -4 5 3 9 14 8 11 -1 20 -4 20 -8z
m320 7 c0 -3 -4 -8 -10 -11 -5 -3 -10 -1 -10 4 0 6 5 11 10 11 6 0 10 -2 10
-4z m835 -8 c14 -6 25 -16 25 -21 0 -5 7 -4 15 3 13 11 14 10 9 -3 -3 -8 -12
-18 -20 -21 -9 -3 -12 -1 -9 4 9 14 -9 12 -23 -2 -12 -12 -13 -11 -16 25 -1 6
-5 15 -11 19 -15 12 1 9 30 -4z m-955 -18 c0 -5 -5 -10 -11 -10 -5 0 -7 5 -4
10 3 6 8 10 11 10 2 0 4 -4 4 -10z m1040 -29 c8 -2 27 -5 43 -6 15 -1 30 -5
35 -10 4 -4 -4 -4 -18 0 -22 7 -23 6 -12 -8 15 -17 52 -19 65 -2 5 6 7 3 3 -7
-6 -20 10 -34 18 -16 3 7 3 3 1 -8 -5 -18 -1 -21 19 -19 14 2 30 6 35 10 6 3
11 1 11 -4 0 -6 -7 -11 -16 -11 -8 0 -12 -5 -9 -10 4 -7 12 -7 25 0 15 8 22 5
34 -12 10 -13 16 -17 16 -9 0 8 3 11 6 8 4 -4 2 -13 -5 -21 -10 -11 -7 -14 14
-12 14 0 25 5 25 10 0 5 3 7 6 3 3 -3 0 -15 -8 -25 -12 -18 -16 -18 -32 -6
-11 7 -23 11 -29 7 -6 -3 -7 -1 -3 5 3 6 -2 16 -11 22 -17 11 -17 11 0 6 9 -3
17 -2 17 3 0 15 -13 20 -31 11 -12 -7 -20 -7 -24 0 -4 6 -11 7 -17 4 -7 -5 -8
-2 -3 6 6 10 4 12 -8 7 -11 -4 -20 1 -27 14 -6 11 -15 17 -21 14 -5 -4 -9 0
-9 7 0 10 -2 10 -8 1 -6 -9 -16 -6 -36 12 -29 25 -52 34 -41 15 3 -6 -1 -7 -9
-4 -9 3 -16 10 -16 16 0 5 -4 6 -10 3 -6 -3 -7 1 -3 10 3 9 9 13 12 8 3 -4 13
-10 21 -12z m-1545 -21 c-3 -5 -12 -10 -18 -10 -7 0 -6 4 3 10 19 12 23 12 15
0z m294 -41 c-13 -10 -33 -20 -44 -23 -20 -5 -20 -5 -1 9 11 8 24 15 29 15 4
0 5 4 2 10 -4 6 1 7 11 3 13 -5 15 -3 9 7 -6 9 -4 11 5 5 10 -6 7 -12 -11 -26z
m-329 -24 c0 -8 -2 -15 -4 -15 -2 0 -6 7 -10 15 -3 8 -1 15 4 15 6 0 10 -7 10
-15z m1690 -50 c-7 -9 -15 -13 -17 -11 -6 6 20 36 26 30 2 -2 -2 -10 -9 -19z
m218 -17 c-2 -7 3 -12 11 -10 12 3 12 0 1 -13 -11 -13 -10 -15 4 -9 10 4 16 1
16 -7 0 -11 3 -11 11 1 8 12 9 11 5 -6 -4 -11 0 -28 7 -38 12 -16 14 -16 14
-2 0 9 -4 16 -9 16 -5 0 -6 5 -2 11 4 8 9 7 15 -2 4 -7 5 -17 3 -21 -5 -8 9
-12 36 -9 13 2 13 1 0 -8 -8 -5 -18 -7 -24 -4 -5 3 -6 1 -2 -6 4 -7 16 -9 28
-5 17 5 19 3 13 -18 -7 -23 -7 -23 10 -3 9 11 13 14 9 6 -5 -11 -3 -13 10 -8
9 4 14 3 11 -2 -3 -5 -1 -12 5 -16 6 -4 7 -11 4 -17 -5 -8 -1 -9 12 -5 17 6
17 6 3 -6 -15 -11 -15 -15 -2 -32 9 -13 13 -15 11 -5 -1 8 2 15 7 15 5 0 9 -6
7 -12 -2 -7 4 -13 11 -13 18 0 30 -27 17 -35 -6 -4 -10 -11 -10 -17 0 -7 4 -7
13 1 17 14 28 4 19 -17 -5 -15 -4 -15 14 -2 15 11 16 11 7 0 -16 -18 -17 -31
-1 -28 8 2 11 -9 9 -34 -2 -29 2 -37 18 -43 12 -3 19 -10 16 -15 -3 -5 -1 -11
5 -15 5 -3 10 -12 10 -18 0 -8 -3 -8 -9 2 -7 10 -10 10 -16 1 -4 -7 -2 -16 6
-20 10 -7 10 -12 -2 -26 -12 -16 -12 -17 3 -11 13 4 15 2 11 -10 -4 -9 -2 -14
3 -10 5 3 10 -3 10 -13 0 -10 -5 -16 -10 -13 -5 4 -7 -1 -3 -10 4 -11 2 -14
-8 -11 -7 3 -12 16 -10 30 1 13 0 26 -4 28 -3 2 -6 19 -6 38 0 18 -7 41 -15
51 -8 10 -16 27 -16 37 -3 38 -4 41 -16 34 -7 -4 -8 -3 -4 5 4 6 13 9 19 5 7
-3 3 2 -7 10 -11 9 -23 16 -28 16 -4 0 -8 6 -8 14 0 8 -7 17 -16 20 -8 3 -13
10 -10 14 3 5 -3 18 -12 28 -10 10 -21 27 -25 37 -4 10 -11 16 -16 13 -4 -3
-15 2 -24 12 -15 17 -17 21 -17 43 0 5 -4 7 -10 4 -5 -3 -10 -1 -10 5 0 6 -5
8 -12 4 -7 -4 -8 -3 -4 4 7 11 -6 17 -27 13 -5 -1 -6 3 -3 8 3 5 -1 11 -9 15
-9 3 -12 12 -8 23 6 16 5 17 -12 3 -11 -9 -16 -10 -11 -2 4 7 2 12 -4 12 -7 0
-10 7 -7 15 4 8 2 17 -3 20 -4 3 -10 -1 -13 -7 -2 -7 -7 -10 -11 -7 -4 4 0 14
9 23 20 19 26 20 23 4z m-1675 -23 c4 -8 1 -17 -5 -21 -7 -4 -8 -3 -4 4 4 7 2
12 -4 12 -6 0 -8 5 -5 10 8 14 12 13 18 -5z m-33 -95 c0 -5 -2 -10 -4 -10 -3
0 -8 5 -11 10 -3 6 -1 10 4 10 6 0 11 -4 11 -10z m25 -60 c0 -7 -7 -15 -15
-17 -13 -4 -13 -3 0 6 13 10 13 12 0 22 -13 9 -13 10 0 6 8 -2 15 -10 15 -17z
m18 -130 c-20 -23 -20 -23 -29 -8 -4 6 -3 8 3 5 6 -4 13 0 17 8 3 8 10 15 16
15 5 0 2 -9 -7 -20z m1985 -75 c-3 -3 -9 2 -12 12 -6 14 -5 15 5 6 7 -7 10
-15 7 -18z m-1961 9 c-3 -3 -12 -4 -19 -1 -8 3 -5 6 6 6 11 1 17 -2 13 -5z
m1883 2 c0 -11 -19 -15 -25 -6 -3 5 1 10 9 10 9 0 16 -2 16 -4z m-1843 -43
c14 -16 30 -27 37 -25 6 2 5 -3 -3 -10 -11 -10 -14 -10 -18 0 -3 6 -9 10 -14
6 -5 -3 -9 -2 -8 3 4 21 -2 33 -15 33 -8 0 -18 5 -21 10 -13 21 17 9 42 -17z
m1843 12 c-7 -8 -16 -12 -21 -9 -16 9 -10 20 12 21 17 2 18 -1 9 -12z m-1800
-75 c0 -5 -7 -7 -15 -4 -8 4 -15 8 -15 10 0 2 7 4 15 4 8 0 15 -4 15 -10z m25
-10 c-3 -5 -1 -11 5 -15 6 -4 8 -11 4 -16 -10 -17 -32 10 -27 31 3 11 9 17 14
14 5 -3 7 -9 4 -14z m1862 -120 c-1 -11 -7 -20 -14 -20 -10 0 -11 5 -4 19 6
10 7 22 3 26 -4 5 -2 5 5 1 6 -3 11 -15 10 -26z m-12 -51 c-4 -5 -12 -9 -18
-8 -9 0 -8 2 1 6 6 2 9 10 6 15 -4 7 -2 8 5 4 6 -4 9 -12 6 -17z m-11 -35 c3
-8 2 -12 -4 -9 -6 3 -10 1 -10 -6 0 -7 -2 -10 -5 -7 -5 5 4 38 10 38 2 0 6 -7
9 -16z m-1654 -19 c5 3 14 -5 20 -17 9 -20 9 -21 -2 -7 -7 9 -17 16 -23 17 -5
1 -10 7 -11 14 -1 10 0 10 3 0 3 -7 8 -10 13 -7z m60 -30 c11 -13 10 -14 -4
-9 -9 3 -16 10 -16 15 0 13 6 11 20 -6z m1567 1 c0 -8 -6 -12 -14 -9 -7 3 -10
9 -7 14 8 14 21 11 21 -5z m-1532 -16 c3 -5 1 -10 -4 -10 -6 0 -11 5 -11 10 0
6 2 10 4 10 3 0 8 -4 11 -10z m1516 -14 c5 3 9 0 9 -6 0 -15 -23 -7 -26 8 -1
7 0 8 3 2 2 -5 9 -8 14 -4z m-1464 -19 c10 4 14 2 9 -5 -11 -18 -42 -10 -43
12 -2 19 -1 19 8 4 6 -11 16 -15 26 -11z m1441 -12 c-3 -3 -9 2 -12 12 -6 14
-5 15 5 6 7 -7 10 -15 7 -18z m-1350 -20 c9 -19 7 -21 -18 -20 -15 0 -26 3
-24 7 2 3 -2 8 -8 11 -7 2 -10 8 -6 12 4 4 14 0 23 -9 22 -22 28 -20 19 7 -7
25 -2 22 14 -8z m1336 10 c3 -8 1 -15 -4 -15 -6 0 -10 7 -10 15 0 8 2 15 4 15
2 0 6 -7 10 -15z m-26 -30 c-3 -3 -9 2 -12 12 -6 14 -5 15 5 6 7 -7 10 -15 7
-18z m-1283 -14 c-3 -6 -11 -11 -16 -11 -5 0 -4 6 3 14 14 16 24 13 13 -3z
m1256 -4 c-6 -6 -16 -12 -21 -12 -5 0 -15 -8 -22 -18 -13 -17 -14 -17 -15 3
-1 11 2 18 6 15 5 -2 14 2 21 10 7 8 16 12 21 9 5 -3 9 0 9 7 0 7 3 9 7 6 4
-4 1 -13 -6 -20z m-158 -68 c-4 -15 -8 -17 -14 -8 -6 11 4 28 18 29 0 0 -1 -9
-4 -21z m-794 -21 c11 -18 11 -18 -12 -3 -13 8 -27 12 -32 8 -4 -5 -5 -3 -2 3
10 17 33 13 46 -8z m761 12 c8 -5 11 -10 5 -10 -5 0 -17 5 -25 10 -8 5 -10 10
-5 10 6 0 17 -5 25 -10z m-646 -26 c9 -24 6 -31 -5 -11 -9 15 -13 16 -27 5
-15 -12 -16 -11 -3 5 17 21 27 22 35 1z m47 7 c15 7 17 6 13 -6 -3 -8 -10 -13
-14 -10 -5 3 -10 1 -12 -5 -2 -6 -9 0 -17 12 -9 16 -10 20 -1 11 9 -8 19 -9
31 -2z m30 -24 c-10 -9 -11 -8 -5 6 3 10 9 15 12 12 3 -3 0 -11 -7 -18z m-21
-79 c0 -6 -6 -5 -15 2 -8 7 -15 14 -15 16 0 2 7 1 15 -2 8 -4 15 -11 15 -16z
m-2530 -2132 c44 -55 115 -108 196 -146 67 -32 69 -36 79 -117 l7 -53 -54 22
c-63 26 -138 75 -138 90 0 6 -3 9 -6 5 -11 -11 -75 94 -114 186 -22 55 -23 57
-12 57 4 0 23 -20 42 -44z m684 -387 c-2 -3 18 -18 44 -32 26 -14 60 -39 76
-56 l29 -31 3 -282 c2 -282 4 -315 26 -396 l11 -44 -49 -41 c-26 -23 -71 -63
-98 -89 l-51 -46 -12 29 c-15 36 -53 39 -80 6 -10 -12 -29 -31 -43 -42 -19
-16 -22 -17 -17 -3 3 9 3 19 -1 22 -3 4 -7 12 -8 19 -1 7 -5 26 -9 42 -11 51
-14 246 -4 239 5 -3 7 -9 4 -14 -2 -4 6 -24 20 -44 14 -20 25 -40 25 -44 0
-18 74 -85 112 -102 71 -32 83 -25 34 20 -77 71 -200 338 -191 415 10 86 17
120 40 182 34 91 32 82 80 303 2 8 4 21 4 28 1 9 10 6 30 -10 15 -13 27 -26
25 -29z m284 -629 c4 -3 8 -12 10 -20 2 -8 9 -22 15 -30 40 -51 42 -78 6 -83
-8 -2 -19 -6 -25 -10 -32 -19 -94 167 -94 282 0 32 3 28 41 -49 22 -47 44 -87
47 -90z m260 30 c17 -19 32 -31 32 -27 0 4 8 -1 18 -10 20 -20 11 -33 -24 -33
-24 0 -67 50 -90 105 -21 50 -17 62 9 29 12 -16 37 -45 55 -64z m-772 42 c0
-4 4 -23 9 -42 4 -19 9 -84 11 -145 4 -141 8 -183 28 -277 5 -22 -1 -33 -31
-62 -21 -19 -41 -32 -44 -28 -4 4 -23 47 -42 97 -27 68 -35 101 -32 135 2 25
4 45 5 45 1 0 3 16 6 35 8 60 10 69 17 76 4 4 7 14 7 22 0 23 53 162 60 156 3
-3 5 -9 6 -12z m594 -152 c0 -5 -2 -10 -4 -10 -3 0 -8 5 -11 10 -3 6 -1 10 4
10 6 0 11 -4 11 -10z"/>
<path d="M2474 5059 c-5 -8 -3 -9 6 -4 10 6 12 4 7 -8 -3 -10 -2 -17 3 -17 13
0 13 27 1 35 -5 3 -13 0 -17 -6z"/>
<path d="M2510 5060 c0 -5 5 -10 11 -10 5 0 7 5 4 10 -3 6 -8 10 -11 10 -2 0
-4 -4 -4 -10z"/>
<path d="M2433 5005 c0 -8 4 -12 9 -9 5 3 6 10 3 15 -9 13 -12 11 -12 -6z"/>
<path d="M2386 4957 c-16 -12 -16 -13 2 -13 10 0 19 6 19 13 0 7 -1 13 -2 13
-1 0 -9 -6 -19 -13z"/>
<path d="M2387 4913 c3 -7 6 -13 8 -13 1 0 7 6 13 13 8 10 6 13 -7 13 -11 0
-17 -6 -14 -13z"/>
<path d="M2333 4813 c4 -3 1 -13 -6 -22 -11 -14 -10 -14 6 -2 11 9 17 10 17 2
0 -6 5 -11 10 -11 6 0 5 8 -2 20 -7 11 -17 20 -22 20 -5 0 -6 -3 -3 -7z"/>
<path d="M3710 5080 c0 -5 5 -10 10 -10 6 0 10 5 10 10 0 6 -4 10 -10 10 -5 0
-10 -4 -10 -10z"/>
<path d="M4266 4741 c-4 -5 -1 -13 6 -18 23 -13 36 -11 34 6 -3 18 -31 27 -40
12z m34 -7 c0 -8 -19 -13 -24 -6 -3 5 1 9 9 9 8 0 15 -2 15 -3z"/>
<path d="M4341 4663 c-1 -6 4 -15 9 -18 6 -4 7 -12 3 -18 -4 -7 0 -6 10 2 16
13 14 36 -3 26 -4 -3 -11 1 -13 7 -4 9 -6 10 -6 1z"/>
<path d="M4384 4609 c-3 -6 -2 -15 3 -20 5 -5 9 -1 9 11 0 23 -2 24 -12 9z"/>
<path d="M4435 4480 c21 -24 26 -25 19 -6 -3 8 -13 17 -22 21 -13 5 -13 2 3
-15z"/>
<path d="M2995 5108 c27 -17 53 -20 60 -8 4 6 11 7 18 3 6 -3 23 -7 38 -8 19
-1 26 2 22 12 -4 10 -9 11 -16 4 -13 -13 -30 -15 -23 -3 6 10 -30 9 -40 -1
-12 -12 -26 -8 -18 6 5 8 2 8 -9 -2 -11 -9 -17 -10 -17 -2 0 6 -8 11 -17 11
-16 -1 -16 -2 2 -12z"/>
<path d="M3146 5109 c3 -5 12 -5 21 -2 12 5 14 3 8 -8 -7 -12 -6 -12 7 -1 13
10 17 10 21 0 4 -10 6 -10 6 1 1 11 4 11 16 1 9 -7 18 -10 22 -6 3 3 1 6 -6 6
-7 0 -10 3 -7 8 2 4 -17 8 -44 8 -27 0 -47 -3 -44 -7z"/>
<path d="M2823 5088 c-16 -27 -12 -40 8 -22 10 9 19 21 19 26 0 12 -18 10 -27
-4z"/>
<path d="M2686 5047 c3 -10 9 -15 12 -12 3 3 0 11 -7 18 -10 9 -11 8 -5 -6z"/>
<path d="M2740 5039 c0 -5 5 -7 10 -4 6 3 10 8 10 11 0 2 -4 4 -10 4 -5 0 -10
-5 -10 -11z"/>
<path d="M3595 5030 c3 -5 8 -10 11 -10 2 0 4 5 4 10 0 6 -5 10 -11 10 -5 0
-7 -4 -4 -10z"/>
<path d="M3675 5009 c-4 -6 -5 -12 -2 -15 2 -3 7 2 10 11 7 17 1 20 -8 4z"/>
<path d="M3696 5002 c-3 -5 1 -9 9 -9 8 0 12 4 9 9 -3 4 -7 8 -9 8 -2 0 -6 -4
-9 -8z"/>
<path d="M3783 4975 c-3 -9 -3 -18 -1 -21 3 -3 8 4 11 16 6 23 -1 27 -10 5z"/>
<path d="M2487 4879 c4 -13 8 -18 11 -10 2 7 -1 18 -6 23 -8 8 -9 4 -5 -13z"/>
<path d="M4006 4867 c3 -10 9 -15 12 -12 3 3 0 11 -7 18 -10 9 -11 8 -5 -6z"/>
<path d="M2156 4847 c3 -10 9 -15 12 -12 3 3 0 11 -7 18 -10 9 -11 8 -5 -6z"/>
<path d="M4030 4849 c0 -5 5 -7 10 -4 6 3 10 8 10 11 0 2 -4 4 -10 4 -5 0 -10
-5 -10 -11z"/>
<path d="M2465 4822 c-14 -10 -17 -32 -5 -32 6 0 10 6 10 14 0 8 6 17 13 19 6
3 8 6 2 6 -5 0 -14 -3 -20 -7z"/>
<path d="M4084 4815 c-4 -8 -11 -12 -17 -8 -5 3 -7 1 -4 -5 8 -12 32 -10 44 3
5 4 2 5 -6 0 -11 -6 -13 -4 -8 8 3 10 4 17 1 17 -2 0 -7 -7 -10 -15z"/>
<path d="M4426 4818 c3 -5 10 -6 15 -3 13 9 11 12 -6 12 -8 0 -12 -4 -9 -9z"/>
<path d="M4116 4792 c-3 -5 1 -9 9 -9 8 0 12 4 9 9 -3 4 -7 8 -9 8 -2 0 -6 -4
-9 -8z"/>
<path d="M4500 4721 c0 -7 -5 -9 -12 -5 -7 5 -8 3 -3 -5 5 -9 10 -10 18 -2 6
6 8 14 4 18 -4 3 -7 1 -7 -6z"/>
<path d="M4967 4696 c-4 -10 -1 -13 8 -9 8 3 12 9 9 14 -7 12 -11 11 -17 -5z"/>
<path d="M4901 4684 c0 -11 3 -14 6 -6 3 7 2 16 -1 19 -3 4 -6 -2 -5 -13z"/>
<path d="M4916 4673 c-16 -16 -26 -23 -22 -16 3 6 2 14 -4 18 -5 3 -10 -2 -10
-11 0 -16 -1 -16 -15 2 -11 13 -13 14 -9 3 4 -13 -2 -16 -33 -14 -21 2 -32 1
-25 -2 6 -3 9 -9 6 -15 -4 -6 0 -6 13 0 15 8 20 8 20 -2 0 -8 -11 -12 -29 -10
-16 2 -27 0 -24 -4 3 -5 -1 -9 -9 -9 -18 0 -19 9 -2 27 10 12 9 12 -5 1 -10
-7 -18 -19 -18 -25 0 -7 -12 -11 -30 -10 -16 1 -27 -2 -24 -7 3 -5 0 -9 -7 -9
-8 0 -9 -3 0 -14 6 -7 22 -11 36 -8 16 3 25 0 25 -8 0 -9 4 -9 17 1 13 11 15
11 9 1 -6 -11 -1 -12 23 -9 18 3 29 1 25 -4 -3 -5 -10 -6 -16 -3 -7 4 -8 2 -4
-4 5 -9 13 -9 27 -2 24 13 25 2 2 -17 -16 -12 -15 -12 9 -2 15 7 25 16 21 22
-7 12 14 1 39 -21 9 -7 21 -11 27 -8 5 4 12 2 16 -3 3 -5 13 -10 23 -10 9 0
26 -2 37 -4 11 -2 28 0 39 5 13 7 16 7 12 -1 -4 -6 -1 -11 6 -11 10 0 9 -3 -2
-11 -13 -9 -13 -10 0 -6 8 2 14 10 12 17 -2 8 4 10 15 6 15 -5 15 -4 -2 10
-19 15 -19 15 8 9 l27 -7 -2 60 c-1 34 -6 58 -11 55 -5 -3 -8 0 -5 8 10 31
-44 51 -64 24 -5 -6 -8 -5 -8 3 0 7 -4 11 -9 7 -5 -3 -13 0 -17 6 -4 8 -3 9 4
5 8 -5 10 -1 5 9 -4 13 -8 14 -14 4 -4 -7 -22 -14 -39 -15 -26 -2 -29 0 -19
12 19 23 6 16 -25 -13z"/>
<path d="M5036 4682 c-3 -5 1 -9 9 -9 8 0 12 4 9 9 -3 4 -7 8 -9 8 -2 0 -6 -4
-9 -8z"/>
<path d="M2460 4639 c0 -5 5 -7 10 -4 6 3 10 8 10 11 0 2 -4 4 -10 4 -5 0 -10
-5 -10 -11z"/>
<path d="M4280 4643 c0 -6 8 -17 18 -24 16 -13 16 -13 2 6 -8 11 -16 22 -17
24 -2 2 -3 0 -3 -6z"/>
<path d="M4716 4642 c-3 -5 1 -9 9 -9 8 0 12 4 9 9 -3 4 -7 8 -9 8 -2 0 -6 -4
-9 -8z"/>
<path d="M4591 4628 c2 -2 17 -14 34 -28 22 -19 26 -20 15 -5 -18 24 -32 35
-44 35 -5 0 -7 -1 -5 -2z"/>
<path d="M4270 4606 c0 -2 7 -7 16 -10 8 -3 12 -2 9 4 -6 10 -25 14 -25 6z"/>
<path d="M2510 4546 c0 -2 7 -9 15 -16 13 -11 14 -10 9 4 -5 14 -24 23 -24 12z"/>
<path d="M4865 4520 c-4 -6 1 -7 12 -3 16 6 16 5 4 -10 -9 -11 -10 -17 -2 -17
6 0 11 5 11 11 0 5 6 7 13 3 8 -5 8 -2 -2 9 -15 19 -27 22 -36 7z"/>
<path d="M2550 4510 c0 -5 5 -10 11 -10 5 0 7 5 4 10 -3 6 -8 10 -11 10 -2 0
-4 -4 -4 -10z"/>
<path d="M4919 4493 c-12 -16 -12 -17 2 -6 9 7 20 9 24 5 5 -4 5 -1 1 6 -9 16
-11 15 -27 -5z"/>
<path d="M4965 4489 c-4 -6 -5 -12 -2 -15 2 -3 7 2 10 11 7 17 1 20 -8 4z"/>
<path d="M5013 4473 c0 -9 4 -10 14 -2 7 6 13 12 13 14 0 1 -6 2 -13 2 -8 0
-14 -6 -14 -14z"/>
<path d="M4380 4421 c-8 -6 -17 -8 -20 -6 -4 2 -7 -3 -7 -11 0 -10 4 -11 11
-4 15 15 30 12 17 -4 -6 -7 -8 -22 -4 -32 6 -16 4 -17 -8 -7 -13 10 -16 10
-16 -2 0 -8 4 -12 8 -10 11 7 18 -21 13 -50 -4 -23 -3 -24 16 -13 11 7 16 14
10 16 -5 2 -10 11 -10 20 0 15 2 15 10 2 7 -12 9 -10 7 8 -1 13 -6 21 -14 18
-7 -3 -10 1 -6 9 3 8 9 13 14 10 4 -3 6 5 3 17 -3 13 -6 29 -6 36 -1 6 -2 12
-2 12 -1 0 -8 -4 -16 -9z"/>
<path d="M2637 4375 c-4 -8 -3 -16 1 -19 4 -3 9 4 9 15 2 23 -3 25 -10 4z"/>
<path d="M4354 4313 c2 -10 -4 -24 -13 -31 -14 -11 -13 -12 6 -3 20 10 25 32
11 47 -4 3 -5 -2 -4 -13z"/>
<path d="M2706 4288 c3 -5 10 -6 15 -3 13 9 11 12 -6 12 -8 0 -12 -4 -9 -9z"/>
<path d="M4607 4275 c-4 -8 -1 -17 5 -21 7 -4 8 -3 4 4 -4 7 -2 12 3 12 6 0
11 5 11 10 0 15 -17 12 -23 -5z"/>
<path d="M4366 4207 c3 -10 9 -15 12 -12 3 3 0 11 -7 18 -10 9 -11 8 -5 -6z"/>
<path d="M4281 4114 c0 -11 3 -14 6 -6 3 7 2 16 -1 19 -3 4 -6 -2 -5 -13z"/>
<path d="M4246 4098 c3 -5 10 -6 15 -3 13 9 11 12 -6 12 -8 0 -12 -4 -9 -9z"/>
<path d="M3080 4086 c0 -2 8 -10 18 -17 15 -13 16 -12 3 4 -13 16 -21 21 -21
13z"/>
<path d="M4230 4070 c0 -6 7 -10 15 -10 8 0 15 2 15 4 0 2 -7 6 -15 10 -8 3
-15 1 -15 -4z"/>
<path d="M4506 4041 c-14 -15 -15 -21 -4 -27 7 -4 10 -3 5 1 -4 5 0 17 10 27
9 10 14 18 11 18 -3 0 -13 -9 -22 -19z"/>
<path d="M4173 4034 c0 -7 6 -10 13 -7 6 2 15 0 19 -6 3 -6 0 -11 -8 -11 -7 0
-14 -7 -14 -15 0 -11 4 -12 14 -4 9 9 13 8 13 0 0 -7 4 -10 9 -6 5 3 9 20 9
38 -1 17 -3 26 -5 20 -3 -7 -9 -13 -14 -13 -6 0 -8 4 -5 8 2 4 -3 8 -13 8 -10
0 -18 -6 -18 -12z"/>
<path d="M4133 4025 c0 -8 4 -12 9 -9 5 3 6 10 3 15 -9 13 -12 11 -12 -6z"/>
<path d="M3297 3999 c4 -13 8 -18 11 -10 2 7 -1 18 -6 23 -8 8 -9 4 -5 -13z"/>
<path d="M3566 3978 c3 -5 10 -6 15 -3 13 9 11 12 -6 12 -8 0 -12 -4 -9 -9z"/>
<path d="M4660 3960 c0 -5 -7 -10 -15 -10 -8 0 -15 -5 -15 -11 0 -5 5 -7 10
-4 6 3 10 -2 10 -12 0 -15 2 -16 10 -3 6 9 10 10 10 3 0 -19 -16 -23 -36 -9
-28 21 -50 8 -24 -14 11 -9 17 -20 13 -24 -3 -3 1 -6 10 -6 10 0 17 -7 17 -15
0 -8 -6 -15 -12 -15 -9 0 -8 -3 2 -9 8 -6 18 -7 24 -4 5 4 7 -1 3 -10 -4 -11
-2 -14 9 -10 7 3 14 0 14 -7 0 -6 5 -8 13 -4 8 5 8 2 -2 -9 -15 -19 -8 -22 20
-7 15 8 23 7 35 -5 9 -8 19 -13 24 -10 5 3 11 -1 13 -7 4 -9 6 -8 6 2 1 8 14
22 30 32 29 16 29 16 26 -4 -3 -11 -1 -17 3 -14 7 8 9 14 11 47 1 16 6 20 22
16 15 -4 18 -2 10 7 -6 7 -8 16 -4 19 6 7 -13 11 -31 8 -5 -1 -5 4 1 11 7 8 7
22 2 36 -12 32 -20 27 -9 -5 l10 -28 -21 25 c-12 14 -26 24 -31 22 -5 -1 -23
-4 -39 -6 -23 -3 -27 -1 -19 9 8 10 8 15 -1 21 -8 4 -9 3 -5 -4 4 -7 4 -12 -1
-13 -4 0 -18 -2 -31 -3 -13 -2 -26 2 -29 7 -3 6 -1 7 5 3 8 -5 10 -2 6 8 -5
14 -8 14 -21 1 -18 -19 -24 -19 -17 0 4 8 3 15 0 15 -3 0 -6 -4 -6 -10z m170
-40 c0 -5 -5 -10 -11 -10 -5 0 -7 5 -4 10 3 6 8 10 11 10 2 0 4 -4 4 -10z"/>
<path d="M4722 3767 c-9 -10 -6 -13 13 -13 19 0 22 3 13 13 -6 7 -12 13 -13
13 -1 0 -7 -6 -13 -13z"/>
<path d="M4820 3770 c-9 -6 -10 -10 -3 -10 6 0 15 5 18 10 8 12 4 12 -15 0z"/>
<path d="M1 1298 l-1 -1298 329 0 328 0 3 63 c1 34 3 116 3 182 1 108 -2 125
-24 170 -24 49 -142 178 -207 226 -33 23 -34 26 -37 104 -2 44 -4 106 -4 138
-1 58 -5 65 -58 108 -18 15 -21 29 -22 130 -2 83 -6 120 -17 137 -9 13 -51 40
-95 60 -87 41 -82 32 -64 122 13 62 19 97 19 118 1 12 4 22 7 22 3 0 5 15 4
34 0 19 3 32 7 30 4 -3 8 -1 8 4 0 6 9 8 21 5 15 -4 28 3 46 23 13 16 44 51
69 77 43 46 46 54 46 97 0 33 -1 36 -24 65 -24 31 -29 63 -25 178 1 28 -4 41
-21 53 -27 19 -28 36 -2 59 11 10 20 28 20 39 -1 27 -71 148 -109 187 -9 8
-25 27 -35 42 -11 14 -23 24 -28 21 -4 -3 -8 -1 -8 4 0 15 -40 22 -66 12 -20
-8 -25 -6 -30 15 -3 14 -10 25 -14 25 -5 0 -11 10 -13 23 -2 12 -5 -562 -6
-1275z"/>
<path d="M5065 825 c-22 -8 -56 -14 -75 -15 -61 -1 -2 -24 93 -36 37 -4 37 -4
37 31 0 39 1 38 -55 20z"/>
</g>
</svg>
